<?xml version="1.0" standalone="no"?>
<svg xmlns:xlink="http://www.w3.org/1999/xlink" id="wave" style="transform:rotate(180deg); transition: 0.3s" viewBox="0 0 1440 220" version="1.1" xmlns="http://www.w3.org/2000/svg"><defs><linearGradient id="sw-gradient-0" x1="0" x2="0" y1="1" y2="0"><stop stop-color="rgba(86, 93, 171, 1)" offset="0%"/><stop stop-color="rgba(86, 93, 171, 1)" offset="100%"/></linearGradient></defs><path style="transform:translate(0, 0px); opacity:1" fill="url(#sw-gradient-0)" d="M0,44L17.1,55C34.3,66,69,88,103,99C137.1,110,171,110,206,91.7C240,73,274,37,309,29.3C342.9,22,377,44,411,77C445.7,110,480,154,514,150.3C548.6,147,583,95,617,95.3C651.4,95,686,147,720,161.3C754.3,176,789,154,823,124.7C857.1,95,891,59,926,62.3C960,66,994,110,1029,124.7C1062.9,139,1097,125,1131,99C1165.7,73,1200,37,1234,44C1268.6,51,1303,103,1337,102.7C1371.4,103,1406,51,1440,29.3C1474.3,7,1509,15,1543,18.3C1577.1,22,1611,22,1646,47.7C1680,73,1714,125,1749,121C1782.9,117,1817,59,1851,33C1885.7,7,1920,15,1954,36.7C1988.6,59,2023,95,2057,117.3C2091.4,139,2126,147,2160,132C2194.3,117,2229,81,2263,80.7C2297.1,81,2331,117,2366,113.7C2400,110,2434,66,2451,44L2468.6,22L2468.6,220L2451.4,220C2434.3,220,2400,220,2366,220C2331.4,220,2297,220,2263,220C2228.6,220,2194,220,2160,220C2125.7,220,2091,220,2057,220C2022.9,220,1989,220,1954,220C1920,220,1886,220,1851,220C1817.1,220,1783,220,1749,220C1714.3,220,1680,220,1646,220C1611.4,220,1577,220,1543,220C1508.6,220,1474,220,1440,220C1405.7,220,1371,220,1337,220C1302.9,220,1269,220,1234,220C1200,220,1166,220,1131,220C1097.1,220,1063,220,1029,220C994.3,220,960,220,926,220C891.4,220,857,220,823,220C788.6,220,754,220,720,220C685.7,220,651,220,617,220C582.9,220,549,220,514,220C480,220,446,220,411,220C377.1,220,343,220,309,220C274.3,220,240,220,206,220C171.4,220,137,220,103,220C68.6,220,34,220,17,220L0,220Z"/></svg>